<?xml version="1.0" encoding="utf-8"?>
<!-- Generator: Adobe Illustrator 27.7.0, SVG Export Plug-In . SVG Version: 6.00 Build 0)  -->
<svg version="1.1" id="Layer_1" xmlns="http://www.w3.org/2000/svg" xmlns:xlink="http://www.w3.org/1999/xlink" x="0px" y="0px"
	 viewBox="0 0 364.5 200.05" style="enable-background:new 0 0 364.5 200.05;" xml:space="preserve">
<style type="text/css">
	.st0{fill:#E31937;}
	.st1{fill:#FFFFFF;}
</style>
<g>
	<g>
		<g>
			<path d="M152.99,137.32c1.45,0,2.7-0.13,3.73-0.4c1.04-0.26,1.9-0.61,2.61-1.04c0.7-0.43,1.26-0.9,1.66-1.43
				c0.4-0.53,0.71-1.06,0.94-1.57c0.22-0.52,0.35-1.01,0.41-1.47c0.06-0.46,0.09-0.83,0.09-1.11c0-1.01-0.17-1.88-0.5-2.59
				c-0.34-0.71-0.8-1.32-1.38-1.81c-0.59-0.49-1.27-0.91-2.04-1.25c-0.77-0.33-1.6-0.62-2.47-0.85l-6.02-1.49
				c-0.51-0.11-0.99-0.26-1.43-0.45c-0.45-0.18-0.85-0.43-1.19-0.73c-0.35-0.3-0.62-0.66-0.81-1.09c-0.2-0.43-0.29-0.93-0.29-1.5
				c0-0.92,0.17-1.69,0.52-2.32c0.35-0.62,0.8-1.12,1.37-1.5c0.56-0.38,1.22-0.66,1.97-0.83c0.75-0.17,1.53-0.26,2.33-0.26
				c0.88,0,1.71,0.12,2.51,0.36c0.79,0.24,1.5,0.6,2.11,1.07c0.61,0.47,1.11,1.06,1.49,1.76c0.38,0.7,0.59,1.53,0.64,2.47h2.35
				c0-1.27-0.25-2.38-0.74-3.34c-0.5-0.96-1.16-1.76-1.99-2.4c-0.83-0.65-1.8-1.13-2.9-1.45c-1.11-0.32-2.27-0.49-3.49-0.49
				c-1.73,0-3.14,0.25-4.25,0.74c-1.11,0.5-1.98,1.1-2.61,1.82c-0.63,0.72-1.07,1.47-1.3,2.28c-0.23,0.81-0.34,1.51-0.34,2.11
				c0,0.97,0.15,1.79,0.47,2.46c0.31,0.67,0.72,1.23,1.23,1.69c0.51,0.46,1.1,0.83,1.78,1.11c0.68,0.28,1.38,0.51,2.09,0.69
				l5.5,1.35c0.57,0.14,1.16,0.32,1.76,0.54c0.6,0.22,1.15,0.5,1.64,0.85c0.5,0.34,0.9,0.77,1.21,1.28c0.31,0.51,0.47,1.11,0.47,1.8
				c0,0.9-0.22,1.67-0.66,2.3c-0.44,0.63-0.99,1.15-1.64,1.56c-0.66,0.41-1.37,0.7-2.13,0.88c-0.76,0.18-1.47,0.28-2.11,0.28
				c-1.13,0-2.19-0.11-3.18-0.33c-0.99-0.22-1.85-0.58-2.58-1.09c-0.73-0.5-1.3-1.18-1.71-2.04c-0.41-0.85-0.61-1.91-0.59-3.18
				h-2.35c-0.07,1.52,0.13,2.82,0.61,3.9c0.47,1.08,1.15,1.97,2.02,2.66c0.88,0.69,1.94,1.21,3.18,1.54
				C150.19,137.16,151.54,137.32,152.99,137.32z"/>
			<polygon points="186.66,114.16 186.66,112.16 169.62,112.16 169.62,136.84 186.84,136.84 186.84,134.83 171.97,134.83 
				171.97,125.08 185.73,125.08 185.73,123.08 171.97,123.08 171.97,114.16 			"/>
			<path d="M212.43,135.58c-0.15-0.54-0.26-1.12-0.33-1.73c-0.07-0.61-0.12-1.21-0.14-1.81c-0.02-0.6-0.05-1.11-0.07-1.52
				c-0.05-0.74-0.14-1.42-0.29-2.06c-0.15-0.63-0.39-1.19-0.73-1.68c-0.33-0.48-0.76-0.88-1.29-1.19c-0.53-0.31-1.2-0.53-2.01-0.64
				v-0.07c1.59-0.32,2.79-1.06,3.6-2.21c0.81-1.15,1.21-2.51,1.21-4.08c0-1.11-0.2-2.07-0.6-2.89c-0.4-0.82-0.95-1.49-1.63-2
				c-0.68-0.52-1.47-0.9-2.38-1.16c-0.91-0.25-1.87-0.38-2.89-0.38h-11.3v24.68h2.35v-10.96h8.92c1.11-0.05,1.98,0.14,2.61,0.56
				c0.63,0.41,1.12,0.96,1.45,1.64c0.33,0.68,0.55,1.45,0.66,2.31c0.1,0.87,0.18,1.73,0.23,2.61c0.02,0.26,0.05,0.56,0.07,0.9
				c0.02,0.35,0.05,0.7,0.09,1.05c0.03,0.36,0.09,0.71,0.17,1.04c0.08,0.34,0.19,0.62,0.33,0.85h2.59
				C212.79,136.54,212.58,136.12,212.43,135.58z M206.75,123.55c-0.65,0.22-1.33,0.33-2.04,0.33h-8.78v-9.71h8.78
				c1.8,0,3.13,0.44,4.01,1.31c0.88,0.88,1.31,2.07,1.31,3.6c0,0.76-0.15,1.44-0.43,2.02c-0.29,0.59-0.68,1.09-1.16,1.5
				C207.96,123.01,207.39,123.33,206.75,123.55z"/>
			<polygon points="236.13,112.16 228.18,134.25 228.11,134.25 220.09,112.16 217.6,112.16 226.73,136.84 229.46,136.84 
				238.62,112.16 			"/>
			<rect x="244.43" y="112.16" width="2.35" height="24.68"/>
			<path d="M272.98,130.53c-0.42,0.96-0.96,1.79-1.62,2.51c-0.67,0.72-1.47,1.28-2.39,1.7c-0.92,0.41-1.96,0.62-3.11,0.62
				c-1.64,0-3.04-0.31-4.22-0.94c-1.17-0.62-2.14-1.44-2.89-2.47c-0.75-1.03-1.3-2.19-1.66-3.49c-0.36-1.3-0.54-2.62-0.54-3.96
				c0-1.36,0.18-2.68,0.54-3.98c0.36-1.29,0.91-2.45,1.66-3.47c0.75-1.03,1.71-1.85,2.89-2.47c1.17-0.62,2.58-0.93,4.22-0.93
				c0.9,0,1.76,0.13,2.58,0.4c0.82,0.26,1.57,0.65,2.25,1.16c0.68,0.51,1.26,1.14,1.73,1.88c0.47,0.75,0.81,1.6,1.02,2.54h2.35
				c-0.16-1.29-0.55-2.43-1.16-3.42c-0.61-0.99-1.37-1.83-2.28-2.5c-0.91-0.68-1.93-1.19-3.04-1.54c-1.12-0.35-2.26-0.52-3.44-0.52
				c-1.94,0-3.64,0.35-5.1,1.06c-1.46,0.7-2.68,1.65-3.65,2.84c-0.97,1.19-1.69,2.55-2.18,4.1c-0.48,1.54-0.73,3.17-0.73,4.87
				c0,1.7,0.24,3.33,0.73,4.87c0.48,1.55,1.21,2.9,2.18,4.08c0.97,1.18,2.18,2.11,3.65,2.82c1.46,0.71,3.16,1.06,5.1,1.06
				c1.45,0,2.77-0.23,3.96-0.69c1.19-0.46,2.22-1.12,3.09-1.97c0.88-0.85,1.59-1.89,2.14-3.11c0.56-1.22,0.91-2.59,1.07-4.11h-2.35
				C273.66,128.54,273.4,129.57,272.98,130.53z"/>
			<polygon points="285.53,125.08 299.29,125.08 299.29,123.08 285.53,123.08 285.53,114.16 300.23,114.16 300.23,112.16 
				283.18,112.16 283.18,136.84 300.4,136.84 300.4,134.83 285.53,134.83 			"/>
			<path d="M323.3,125.9c-0.59-0.49-1.27-0.91-2.04-1.25c-0.77-0.33-1.6-0.62-2.47-0.85l-6.02-1.49c-0.5-0.11-0.98-0.26-1.43-0.45
				c-0.45-0.18-0.85-0.43-1.19-0.73c-0.35-0.3-0.62-0.66-0.81-1.09c-0.2-0.43-0.29-0.93-0.29-1.5c0-0.92,0.17-1.69,0.52-2.32
				c0.35-0.62,0.8-1.12,1.37-1.5c0.56-0.38,1.22-0.66,1.97-0.83c0.75-0.17,1.53-0.26,2.33-0.26c0.88,0,1.71,0.12,2.5,0.36
				c0.8,0.24,1.5,0.6,2.11,1.07c0.61,0.47,1.11,1.06,1.49,1.76c0.38,0.7,0.59,1.53,0.64,2.47h2.35c0-1.27-0.25-2.38-0.74-3.34
				c-0.49-0.96-1.16-1.76-1.99-2.4c-0.83-0.65-1.8-1.13-2.9-1.45c-1.11-0.32-2.27-0.49-3.49-0.49c-1.73,0-3.15,0.25-4.25,0.74
				c-1.11,0.5-1.98,1.1-2.61,1.82c-0.63,0.72-1.07,1.47-1.3,2.28c-0.23,0.81-0.34,1.51-0.34,2.11c0,0.97,0.15,1.79,0.47,2.46
				c0.31,0.67,0.72,1.23,1.23,1.69c0.5,0.46,1.1,0.83,1.78,1.11c0.68,0.28,1.38,0.51,2.09,0.69l5.5,1.35
				c0.57,0.14,1.16,0.32,1.76,0.54c0.6,0.22,1.14,0.5,1.64,0.85c0.5,0.34,0.9,0.77,1.21,1.28c0.31,0.51,0.47,1.11,0.47,1.8
				c0,0.9-0.22,1.67-0.66,2.3c-0.44,0.63-0.99,1.15-1.64,1.56c-0.66,0.41-1.37,0.7-2.13,0.88c-0.76,0.18-1.47,0.28-2.11,0.28
				c-1.13,0-2.19-0.11-3.18-0.33c-0.99-0.22-1.85-0.58-2.58-1.09c-0.73-0.5-1.29-1.18-1.71-2.04c-0.42-0.85-0.61-1.91-0.59-3.18
				h-2.35c-0.07,1.52,0.13,2.82,0.61,3.9c0.47,1.08,1.15,1.97,2.02,2.66c0.88,0.69,1.93,1.21,3.18,1.54c1.24,0.33,2.59,0.5,4.05,0.5
				c1.45,0,2.7-0.13,3.73-0.4c1.04-0.26,1.9-0.61,2.61-1.04c0.7-0.43,1.26-0.9,1.66-1.43s0.71-1.06,0.93-1.57
				c0.22-0.52,0.36-1.01,0.42-1.47c0.06-0.46,0.09-0.83,0.09-1.11c0-1.01-0.17-1.88-0.5-2.59C324.35,127,323.89,126.39,323.3,125.9z
				"/>
			<polygon class="st0" points="293.82,13 259.98,34.93 259.98,25.72 238.66,25.72 238.66,46.14 224.25,58.15 240.16,58.15 
				240.16,55.16 232.53,55.16 241.66,47.54 241.66,28.72 256.98,28.72 256.98,40.44 293.8,16.58 352.28,55.25 339.41,55.25 
				339.41,119.6 330.21,119.6 330.21,122.59 342.41,122.59 342.41,58.24 362.25,58.24 			"/>
			<g>
				<path class="st0" d="M49.33,32.89L49.33,32.89c-0.02,1.14-0.45,3.14,0.33,6.8c0,0,2.38,17.64,20.34,17.98
					c5.17-0.35,7.35-1.34,10-2.64c9.98-4.88,11.64-15.82,11.64-15.82h-9.39c-5.43,12.25-15.98,8.14-15.98,8.14l5.93-27.88
					c11.4,0.31,11.83,11.05,11.83,11.05h9.54c0,0,0.67-11.28-10.33-17.98c-2.25-1.37-5.97-2.34-9.6-2.42
					C73.64,10.12,53.33,8.85,49.33,32.89L49.33,32.89z"/>
				<polygon class="st0" points="130.6,13.15 128.73,21.84 112.76,21.84 110.89,30.52 126.91,30.52 125.09,39.21 109.07,39.21 
					107.25,47.9 123.27,47.9 121.41,56.55 89.14,56.55 98.33,13.15 130.6,13.15 				"/>
				<polygon class="st0" points="29.09,56.62 23.89,28.93 5.43,56.62 29.09,56.62 				"/>
				<polygon class="st0" points="51.7,56.62 34.06,56.62 27.85,22.96 41.66,2.25 51.7,56.62 				"/>
			</g>
			<g>
				<path d="M39.68,105.91h-9.9V88.66H15.11v17.25H5.14V64.59h9.96V81h14.67v-16.4h9.9V105.91z"/>
				<path d="M69.96,98.2H56.31l-2.38,7.72H43.29l15.15-41.32h9.37l15.27,41.32h-10.7L69.96,98.2z M58.7,90.51h8.88l-4.46-14.33
					L58.7,90.51z"/>
				<path d="M120.59,105.91h-9.9L96.04,80.2v25.71h-9.96V64.59h9.96l14.62,25.71V64.59h9.93V105.91z"/>
				<path d="M126.89,105.91V64.59h13.31c3.65,0,6.93,0.83,9.85,2.48c2.91,1.66,5.19,3.99,6.82,7.01c1.64,3.02,2.46,6.4,2.48,10.15
					v1.9c0,3.78-0.8,7.18-2.4,10.18c-1.6,3-3.85,5.35-6.75,7.04c-2.91,1.69-6.14,2.55-9.72,2.57H126.89z M136.85,72.29v25.97h3.46
					c2.86,0,5.05-1.02,6.58-3.05c1.53-2.03,2.3-5.06,2.3-9.07v-1.79c0-3.99-0.77-7-2.3-9.02c-1.53-2.02-3.76-3.04-6.7-3.04H136.85z"
					/>
				<path d="M176.92,82.53l7.61-17.94h10.76l-13.31,26.48v14.84h-10.1V91.07l-13.28-26.48h10.7L176.92,82.53z"/>
				<path d="M211.38,64.59l9.22,28.75l9.19-28.75h13.11v41.32h-9.99v-9.65l0.96-19.75l-9.99,29.4h-6.58l-10.02-29.43l0.97,19.78
					v9.65h-9.96V64.59H211.38z"/>
				<path d="M273.21,98.2h-13.65l-2.38,7.72h-10.64l15.15-41.32h9.37l15.27,41.32h-10.7L273.21,98.2z M261.95,90.51h8.88
					l-4.46-14.33L261.95,90.51z"/>
				<path d="M323.84,105.91h-9.91L299.29,80.2v25.71h-9.96V64.59h9.96l14.61,25.71V64.59h9.93V105.91z"/>
			</g>
			<g>
				<path class="st0" d="M346.49,119.69c0-0.56,0.13-1.09,0.39-1.57c0.26-0.48,0.62-0.86,1.08-1.14c0.46-0.28,0.96-0.42,1.49-0.42
					s1.03,0.14,1.49,0.42c0.46,0.28,0.82,0.66,1.08,1.14c0.26,0.48,0.39,1,0.39,1.57c0,0.56-0.13,1.08-0.39,1.57
					c-0.26,0.48-0.62,0.86-1.07,1.14c-0.46,0.28-0.95,0.42-1.49,0.42c-0.54,0-1.03-0.14-1.49-0.42c-0.46-0.28-0.82-0.66-1.08-1.14
					C346.62,120.78,346.49,120.25,346.49,119.69z M351.9,119.69c0-0.46-0.1-0.89-0.31-1.29c-0.21-0.4-0.5-0.71-0.89-0.95
					c-0.38-0.24-0.8-0.36-1.25-0.36c-0.44,0-0.85,0.11-1.23,0.34c-0.38,0.23-0.68,0.54-0.9,0.94c-0.22,0.4-0.32,0.84-0.32,1.31
					c0,0.47,0.11,0.91,0.32,1.31c0.22,0.4,0.51,0.72,0.89,0.95c0.38,0.23,0.79,0.35,1.24,0.35c0.44,0,0.86-0.12,1.24-0.35
					c0.38-0.24,0.68-0.55,0.89-0.95C351.8,120.58,351.9,120.15,351.9,119.69z M348.85,120.01v1.41h-0.63v-3.55h1.17
					c0.43,0,0.76,0.09,1,0.28c0.24,0.19,0.36,0.46,0.36,0.8c0,0.33-0.17,0.58-0.5,0.75c0.18,0.08,0.31,0.2,0.38,0.35
					c0.07,0.15,0.11,0.35,0.11,0.57c0,0.23,0.01,0.39,0.02,0.48c0.01,0.09,0.03,0.17,0.06,0.24v0.07h-0.65
					c-0.04-0.09-0.06-0.36-0.06-0.81c0-0.21-0.05-0.36-0.14-0.46s-0.24-0.14-0.46-0.14H348.85z M348.85,119.44h0.6
					c0.19,0,0.35-0.04,0.48-0.13s0.19-0.2,0.19-0.36c0-0.19-0.05-0.33-0.15-0.41c-0.1-0.08-0.28-0.13-0.54-0.13h-0.59V119.44z"/>
			</g>
			<rect x="2.39" y="122.66" class="st0" width="131.16" height="3.67"/>
		</g>
	</g>
	<rect x="2.25" y="149.07" class="st0" width="340.81" height="48.73"/>
	<g>
		<path class="st1" d="M248.79,182.04c-0.11,1.17-0.54,2.09-1.3,2.75s-1.76,0.99-3.02,0.99c-0.88,0-1.65-0.21-2.32-0.62
			c-0.67-0.42-1.18-1.01-1.55-1.77c-0.36-0.77-0.55-1.65-0.57-2.67v-1.03c0-1.04,0.18-1.95,0.55-2.74c0.37-0.79,0.9-1.4,1.58-1.83
			c0.69-0.43,1.48-0.64,2.38-0.64c1.21,0,2.19,0.33,2.93,0.99s1.17,1.59,1.29,2.79h-1.9c-0.09-0.79-0.32-1.36-0.69-1.71
			c-0.37-0.35-0.91-0.53-1.63-0.53c-0.83,0-1.47,0.3-1.92,0.91c-0.45,0.61-0.67,1.5-0.68,2.67v0.98c0,1.19,0.21,2.1,0.64,2.72
			c0.43,0.62,1.05,0.94,1.87,0.94c0.75,0,1.31-0.17,1.69-0.51c0.38-0.34,0.62-0.9,0.72-1.68H248.79z"/>
		<path class="st1" d="M250.1,181.46c0-0.8,0.16-1.52,0.48-2.17c0.32-0.64,0.76-1.14,1.34-1.48c0.57-0.35,1.23-0.52,1.98-0.52
			c1.1,0,2,0.35,2.69,1.07c0.69,0.71,1.06,1.65,1.11,2.83l0.01,0.43c0,0.81-0.15,1.53-0.46,2.16s-0.75,1.13-1.33,1.47
			c-0.58,0.35-1.24,0.52-2,0.52c-1.15,0-2.08-0.38-2.77-1.15c-0.69-0.77-1.04-1.79-1.04-3.07V181.46z M251.94,181.62
			c0,0.84,0.17,1.5,0.52,1.98s0.83,0.71,1.45,0.71s1.1-0.24,1.45-0.73c0.35-0.48,0.52-1.19,0.52-2.12c0-0.83-0.18-1.48-0.53-1.96
			c-0.36-0.48-0.84-0.73-1.45-0.73c-0.6,0-1.08,0.24-1.43,0.71C252.11,179.96,251.94,180.67,251.94,181.62z"/>
		<path class="st1" d="M261.11,177.44l0.05,0.85c0.57-0.67,1.36-1,2.36-1c1.09,0,1.84,0.42,2.24,1.25c0.59-0.84,1.43-1.25,2.51-1.25
			c0.9,0,1.57,0.25,2.01,0.75c0.44,0.5,0.67,1.23,0.68,2.21v5.37h-1.84v-5.32c0-0.52-0.11-0.9-0.34-1.14
			c-0.23-0.24-0.6-0.36-1.13-0.36c-0.42,0-0.76,0.11-1.02,0.34s-0.45,0.52-0.56,0.88l0.01,5.61h-1.84v-5.38
			c-0.03-0.96-0.52-1.44-1.47-1.44c-0.74,0-1.26,0.3-1.56,0.9v5.92h-1.84v-8.18H261.11z"/>
		<path class="st1" d="M280.13,181.62c0,1.26-0.29,2.27-0.86,3.03s-1.35,1.13-2.31,1.13c-0.9,0-1.61-0.29-2.15-0.88v3.88h-1.84
			v-11.32h1.69l0.08,0.83c0.54-0.66,1.27-0.98,2.2-0.98c1,0,1.78,0.37,2.35,1.11s0.85,1.78,0.85,3.09V181.62z M278.31,181.46
			c0-0.82-0.16-1.46-0.49-1.94c-0.33-0.48-0.79-0.72-1.39-0.72c-0.75,0-1.29,0.31-1.62,0.93v3.63c0.33,0.63,0.88,0.95,1.63,0.95
			c0.58,0,1.04-0.24,1.37-0.71C278.14,183.13,278.31,182.41,278.31,181.46z"/>
		<path class="st1" d="M286.7,185.62c-0.08-0.16-0.15-0.41-0.21-0.76c-0.58,0.61-1.3,0.92-2.15,0.92c-0.82,0-1.49-0.23-2.01-0.7
			s-0.78-1.05-0.78-1.74c0-0.87,0.32-1.54,0.97-2.01c0.65-0.47,1.57-0.7,2.78-0.7h1.13v-0.54c0-0.42-0.12-0.76-0.35-1.02
			c-0.24-0.25-0.6-0.38-1.08-0.38c-0.42,0-0.76,0.1-1.03,0.31c-0.27,0.21-0.4,0.48-0.4,0.8h-1.84c0-0.45,0.15-0.87,0.45-1.26
			c0.3-0.39,0.7-0.7,1.21-0.92c0.51-0.22,1.08-0.33,1.71-0.33c0.96,0,1.72,0.24,2.29,0.72c0.57,0.48,0.86,1.16,0.88,2.03v3.69
			c0,0.74,0.1,1.32,0.31,1.76v0.13H286.7z M284.68,184.3c0.36,0,0.7-0.09,1.02-0.26c0.32-0.18,0.56-0.41,0.72-0.71v-1.54h-0.99
			c-0.68,0-1.19,0.12-1.53,0.35c-0.34,0.24-0.51,0.57-0.51,1.01c0,0.35,0.12,0.63,0.35,0.84
			C283.97,184.19,284.29,184.3,284.68,184.3z"/>
		<path class="st1" d="M292.01,177.44l0.05,0.95c0.6-0.73,1.4-1.1,2.38-1.1c1.7,0,2.57,0.97,2.6,2.92v5.4h-1.84v-5.3
			c0-0.52-0.11-0.9-0.34-1.15c-0.22-0.25-0.59-0.37-1.1-0.37c-0.74,0-1.29,0.33-1.66,1v5.82h-1.84v-8.18H292.01z"/>
		<path class="st1" d="M301.9,182.99l1.66-5.55h1.96l-3.25,9.42c-0.5,1.38-1.35,2.06-2.54,2.06c-0.27,0-0.56-0.05-0.88-0.14v-1.43
			l0.35,0.02c0.46,0,0.81-0.08,1.05-0.25s0.42-0.45,0.56-0.85l0.26-0.7l-2.87-8.13h1.98L301.9,182.99z"/>
	</g>
	<g>
		<path class="st1" d="M45.34,183.06h-4.26l-0.89,2.56H38.2l4.16-11h1.72l4.16,11h-2L45.34,183.06z M41.61,181.52h3.19l-1.59-4.57
			L41.61,181.52z"/>
		<path class="st1" d="M50.77,177.44l0.05,0.95c0.6-0.73,1.4-1.1,2.38-1.1c1.7,0,2.57,0.97,2.6,2.92v5.4h-1.84v-5.3
			c0-0.52-0.11-0.9-0.34-1.15c-0.22-0.25-0.59-0.37-1.1-0.37c-0.74,0-1.29,0.33-1.66,1v5.82h-1.84v-8.18H50.77z"/>
	</g>
	<g>
		<g>
			<g>
				<path class="st1" d="M132.07,185.64l3-14.29h4.69l-1.01,4.82h4.43l1.01-4.82h4.69l-3,14.29h-4.69l1.16-5.54h-4.43l-1.16,5.54
					H132.07z"/>
				<path class="st1" d="M155.67,185.65l-0.04-1.11c-1.33,1.09-2.56,1.41-4.11,1.41c-1.96,0-3.57-0.97-3.26-3.14
					c0.68-4.72,7.77-2.58,8.05-4.52c0.11-0.75-0.79-0.85-1.23-0.85c-0.57,0-1.37,0.12-1.59,1.01h-3.97c0.31-2.2,2.07-3.49,6.17-3.49
					c4.92,0,4.96,1.83,4.6,4.31l-0.7,4.86c-0.09,0.59-0.11,0.89,0.37,1.33l-0.03,0.2H155.67z M155.91,181.05
					c-1.44,0.65-3.18,0.34-3.38,1.69c-0.07,0.52,0.37,0.87,1.19,0.87C155.16,183.61,155.8,182.48,155.91,181.05z"/>
				<path class="st1" d="M162.25,175.26H166l-0.3,2.1h0.04c0.81-1.63,1.93-2.4,3.54-2.4c0.18,0,0.35,0.04,0.53,0.06l-0.59,4.13
					c-0.27-0.04-0.56-0.12-0.84-0.12c-1.69,0-2.65,0.79-2.97,3.04l-0.51,3.59h-4.13L162.25,175.26z"/>
				<path class="st1" d="M176.26,185.65l0.2-1.39c-1.15,1.27-2.11,1.69-3.44,1.69c-3.14,0-4.38-2.36-3.96-5.3
					c0.49-3.45,2.74-5.69,5.22-5.69c1.31,0,2.18,0.32,2.9,1.35l0.71-4.94h4.13l-2.04,14.29H176.26z M176.71,180.55
					c0.16-1.15-0.05-2.4-1.42-2.4c-1.37,0-1.93,1.31-2.1,2.46c-0.16,1.09-0.06,2.36,1.29,2.36
					C175.9,182.97,176.53,181.76,176.71,180.55z"/>
				<path class="st1" d="M193.39,181.68h0.04l2.53-6.43h3.91l-4.8,10.4h-4.03l-0.74-6.09h-0.04l-2.32,6.09h-4.03l-1.95-10.4H186
					l0.67,6.43h0.04l2.53-6.43h3.49L193.39,181.68z"/>
				<path class="st1" d="M206.25,185.65l-0.04-1.11c-1.33,1.09-2.56,1.41-4.11,1.41c-1.96,0-3.57-0.97-3.26-3.14
					c0.68-4.72,7.77-2.58,8.05-4.52c0.11-0.75-0.79-0.85-1.23-0.85c-0.58,0-1.37,0.12-1.59,1.01h-3.97c0.32-2.2,2.07-3.49,6.17-3.49
					c4.92,0,4.96,1.83,4.6,4.31l-0.7,4.86c-0.08,0.59-0.11,0.89,0.37,1.33l-0.03,0.2H206.25z M206.49,181.05
					c-1.44,0.65-3.18,0.34-3.38,1.69c-0.07,0.52,0.37,0.87,1.18,0.87C205.75,183.61,206.39,182.48,206.49,181.05z"/>
				<path class="st1" d="M212.84,175.26h3.75l-0.3,2.1h0.04c0.81-1.63,1.93-2.4,3.54-2.4c0.18,0,0.35,0.04,0.53,0.06l-0.59,4.13
					c-0.27-0.04-0.56-0.12-0.84-0.12c-1.69,0-2.65,0.79-2.97,3.04l-0.51,3.59h-4.13L212.84,175.26z"/>
				<path class="st1" d="M227.67,179.28c0.14-0.95-0.59-1.81-1.57-1.81c-1.23,0-2.02,0.69-2.18,1.81H227.67z M223.62,181.39
					c-0.18,1.23,0.66,2.04,1.75,2.04c0.66,0,1.29-0.3,1.68-0.91H231c-1.08,2.58-3.82,3.43-6.24,3.43c-3.33,0-5.64-1.9-5.14-5.4
					c0.49-3.41,3.36-5.6,6.69-5.6c3.85,0,5.79,2.66,5.19,6.43H223.62z"/>
			</g>
		</g>
	</g>
	<g>
		<path class="st1" d="M87.76,172.73L87.76,172.73c-0.01,0.62-0.25,1.72,0.18,3.72c0,0,1.3,9.65,11.13,9.84
			c2.83-0.19,4.02-0.73,5.47-1.44c5.46-2.67,6.37-8.66,6.37-8.66h-5.14c-2.97,6.71-8.74,4.46-8.74,4.46l3.25-15.26
			c6.24,0.17,6.47,6.05,6.47,6.05h5.22c0,0,0.37-6.17-5.65-9.84c-1.23-0.75-3.27-1.28-5.25-1.32
			C101.06,160.28,89.95,159.58,87.76,172.73z"/>
		<polygon class="st1" points="132.23,161.93 131.21,166.69 122.47,166.69 121.45,171.44 130.21,171.44 129.21,176.19 
			120.45,176.19 119.45,180.95 128.22,180.95 127.2,185.68 109.54,185.68 114.57,161.93 		"/>
		<polygon class="st1" points="76.68,185.72 73.84,170.57 63.74,185.72 		"/>
		<polygon class="st1" points="89.06,185.72 79.4,185.72 76.01,167.3 83.56,155.97 		"/>
		<path class="st1" d="M128.11,184.49c0-0.7,0.57-1.22,1.24-1.22c0.67,0,1.24,0.52,1.24,1.22c0,0.71-0.57,1.23-1.24,1.23
			C128.68,185.71,128.11,185.2,128.11,184.49z M129.35,185.51c0.55,0,0.99-0.43,0.99-1.02c0-0.58-0.44-1.02-0.99-1.02
			c-0.56,0-1,0.44-1,1.02C128.35,185.08,128.79,185.51,129.35,185.51z M129.09,185.2h-0.21v-1.41h0.54c0.33,0,0.5,0.12,0.5,0.4
			c0,0.25-0.16,0.36-0.37,0.39l0.4,0.62h-0.24l-0.37-0.61h-0.25V185.2z M129.35,184.4c0.18,0,0.34-0.01,0.34-0.23
			c0-0.17-0.16-0.21-0.31-0.21h-0.29v0.44H129.35z"/>
	</g>
</g>
<g>
	<g>
		<g>
			<path d="M157.52-358.04c1.45,0,2.7-0.13,3.73-0.4c1.04-0.26,1.9-0.61,2.61-1.04c0.7-0.43,1.26-0.9,1.66-1.43
				c0.4-0.53,0.71-1.06,0.94-1.57c0.22-0.52,0.35-1.01,0.41-1.47c0.06-0.46,0.09-0.83,0.09-1.11c0-1.01-0.17-1.88-0.5-2.59
				c-0.34-0.71-0.8-1.32-1.38-1.81c-0.59-0.49-1.27-0.91-2.04-1.25c-0.77-0.33-1.6-0.62-2.47-0.85l-6.02-1.49
				c-0.51-0.11-0.99-0.26-1.43-0.45c-0.45-0.18-0.85-0.43-1.19-0.73c-0.35-0.3-0.62-0.66-0.81-1.09c-0.2-0.43-0.29-0.93-0.29-1.5
				c0-0.92,0.17-1.69,0.52-2.32c0.35-0.62,0.8-1.12,1.37-1.5c0.56-0.38,1.22-0.66,1.97-0.83c0.75-0.17,1.53-0.26,2.33-0.26
				c0.88,0,1.71,0.12,2.51,0.36c0.79,0.24,1.5,0.6,2.11,1.07c0.61,0.47,1.11,1.06,1.49,1.76c0.38,0.7,0.59,1.53,0.64,2.47h2.35
				c0-1.27-0.25-2.38-0.74-3.34c-0.5-0.96-1.16-1.76-1.99-2.4c-0.83-0.65-1.8-1.13-2.9-1.45c-1.11-0.32-2.27-0.49-3.49-0.49
				c-1.73,0-3.14,0.25-4.25,0.74c-1.11,0.5-1.98,1.1-2.61,1.82c-0.63,0.72-1.07,1.47-1.3,2.28c-0.23,0.81-0.34,1.51-0.34,2.11
				c0,0.97,0.15,1.79,0.47,2.46c0.31,0.67,0.72,1.23,1.23,1.69c0.51,0.46,1.1,0.83,1.78,1.11c0.68,0.28,1.38,0.51,2.09,0.69
				l5.5,1.35c0.57,0.14,1.16,0.32,1.76,0.54c0.6,0.22,1.15,0.5,1.64,0.85c0.5,0.34,0.9,0.77,1.21,1.28c0.31,0.51,0.47,1.11,0.47,1.8
				c0,0.9-0.22,1.67-0.66,2.3c-0.44,0.63-0.99,1.15-1.64,1.56c-0.66,0.41-1.37,0.7-2.13,0.88c-0.76,0.18-1.47,0.28-2.11,0.28
				c-1.13,0-2.19-0.11-3.18-0.33c-0.99-0.22-1.85-0.58-2.58-1.09c-0.73-0.5-1.3-1.18-1.71-2.04c-0.41-0.85-0.61-1.91-0.59-3.18
				h-2.35c-0.07,1.52,0.13,2.82,0.61,3.9c0.47,1.08,1.15,1.97,2.02,2.66c0.88,0.69,1.94,1.21,3.18,1.54
				C154.72-358.21,156.07-358.04,157.52-358.04z"/>
			<polygon points="191.19,-381.2 191.19,-383.21 174.15,-383.21 174.15,-358.52 191.37,-358.52 191.37,-360.53 176.5,-360.53 
				176.5,-370.28 190.26,-370.28 190.26,-372.28 176.5,-372.28 176.5,-381.2 			"/>
			<path d="M216.97-359.78c-0.15-0.54-0.26-1.12-0.33-1.73c-0.07-0.61-0.12-1.21-0.14-1.81c-0.02-0.6-0.05-1.11-0.07-1.52
				c-0.05-0.74-0.14-1.42-0.29-2.06c-0.15-0.63-0.39-1.19-0.73-1.68c-0.33-0.48-0.76-0.88-1.29-1.19c-0.53-0.31-1.2-0.53-2.01-0.64
				v-0.07c1.59-0.32,2.79-1.06,3.6-2.21c0.81-1.15,1.21-2.51,1.21-4.08c0-1.11-0.2-2.07-0.6-2.89s-0.95-1.49-1.63-2
				c-0.68-0.52-1.47-0.9-2.38-1.16c-0.91-0.25-1.87-0.38-2.89-0.38h-11.3v24.68h2.35v-10.96h8.92c1.11-0.05,1.98,0.14,2.61,0.56
				c0.63,0.41,1.12,0.96,1.45,1.64c0.33,0.68,0.55,1.45,0.66,2.31c0.1,0.87,0.18,1.73,0.23,2.61c0.02,0.26,0.05,0.56,0.07,0.9
				c0.02,0.35,0.05,0.7,0.09,1.05c0.03,0.36,0.09,0.71,0.17,1.04c0.08,0.34,0.19,0.62,0.33,0.85h2.59
				C217.32-358.82,217.12-359.24,216.97-359.78z M211.28-371.82c-0.65,0.22-1.33,0.33-2.04,0.33h-8.78v-9.71h8.78
				c1.8,0,3.13,0.44,4.01,1.31c0.88,0.88,1.31,2.07,1.31,3.6c0,0.76-0.15,1.44-0.43,2.02c-0.29,0.59-0.68,1.09-1.16,1.5
				C212.49-372.35,211.92-372.04,211.28-371.82z"/>
			<polygon points="240.66,-383.21 232.71,-361.12 232.64,-361.12 224.62,-383.21 222.14,-383.21 231.26,-358.52 233.99,-358.52 
				243.15,-383.21 			"/>
			<rect x="248.96" y="-383.21" width="2.35" height="24.68"/>
			<path d="M277.52-364.83c-0.42,0.96-0.96,1.79-1.62,2.51c-0.67,0.72-1.47,1.28-2.39,1.7c-0.92,0.41-1.96,0.62-3.11,0.62
				c-1.64,0-3.04-0.31-4.22-0.94c-1.17-0.62-2.14-1.44-2.89-2.47c-0.75-1.03-1.3-2.19-1.66-3.49c-0.36-1.3-0.54-2.62-0.54-3.96
				c0-1.36,0.18-2.68,0.54-3.98c0.36-1.29,0.91-2.45,1.66-3.47c0.75-1.03,1.71-1.85,2.89-2.47c1.17-0.62,2.58-0.93,4.22-0.93
				c0.9,0,1.76,0.13,2.58,0.4c0.82,0.26,1.57,0.65,2.25,1.16c0.68,0.51,1.26,1.14,1.73,1.88c0.47,0.75,0.81,1.6,1.02,2.54h2.35
				c-0.16-1.29-0.55-2.43-1.16-3.42c-0.61-0.99-1.37-1.83-2.28-2.5c-0.91-0.68-1.93-1.19-3.04-1.54c-1.12-0.35-2.26-0.52-3.44-0.52
				c-1.94,0-3.64,0.35-5.1,1.06c-1.46,0.7-2.68,1.65-3.65,2.84c-0.97,1.19-1.69,2.55-2.18,4.1c-0.48,1.54-0.73,3.17-0.73,4.87
				c0,1.7,0.24,3.33,0.73,4.87c0.48,1.55,1.21,2.9,2.18,4.08c0.97,1.18,2.18,2.11,3.65,2.82c1.46,0.71,3.16,1.06,5.1,1.06
				c1.45,0,2.77-0.23,3.96-0.69c1.19-0.46,2.22-1.12,3.09-1.97c0.88-0.85,1.59-1.89,2.14-3.11c0.56-1.22,0.91-2.59,1.07-4.11h-2.35
				C278.19-366.82,277.93-365.79,277.52-364.83z"/>
			<polygon points="290.07,-370.28 303.82,-370.28 303.82,-372.28 290.07,-372.28 290.07,-381.2 304.76,-381.2 304.76,-383.21 
				287.71,-383.21 287.71,-358.52 304.93,-358.52 304.93,-360.53 290.07,-360.53 			"/>
			<path d="M327.83-369.46c-0.59-0.49-1.27-0.91-2.04-1.25c-0.77-0.33-1.6-0.62-2.47-0.85l-6.02-1.49c-0.5-0.11-0.98-0.26-1.43-0.45
				c-0.45-0.18-0.85-0.43-1.19-0.73c-0.35-0.3-0.62-0.66-0.81-1.09c-0.2-0.43-0.29-0.93-0.29-1.5c0-0.92,0.17-1.69,0.52-2.32
				c0.35-0.62,0.8-1.12,1.37-1.5c0.56-0.38,1.22-0.66,1.97-0.83c0.75-0.17,1.53-0.26,2.33-0.26c0.88,0,1.71,0.12,2.5,0.36
				c0.8,0.24,1.5,0.6,2.11,1.07c0.61,0.47,1.11,1.06,1.49,1.76c0.38,0.7,0.59,1.53,0.64,2.47h2.35c0-1.27-0.25-2.38-0.74-3.34
				c-0.49-0.96-1.16-1.76-1.99-2.4c-0.83-0.65-1.8-1.13-2.9-1.45c-1.11-0.32-2.27-0.49-3.49-0.49c-1.73,0-3.15,0.25-4.25,0.74
				c-1.11,0.5-1.98,1.1-2.61,1.82c-0.63,0.72-1.07,1.47-1.3,2.28c-0.23,0.81-0.34,1.51-0.34,2.11c0,0.97,0.15,1.79,0.47,2.46
				c0.31,0.67,0.72,1.23,1.23,1.69c0.5,0.46,1.1,0.83,1.78,1.11c0.68,0.28,1.38,0.51,2.09,0.69l5.5,1.35
				c0.57,0.14,1.16,0.32,1.76,0.54c0.6,0.22,1.14,0.5,1.64,0.85c0.5,0.34,0.9,0.77,1.21,1.28c0.31,0.51,0.47,1.11,0.47,1.8
				c0,0.9-0.22,1.67-0.66,2.3c-0.44,0.63-0.99,1.15-1.64,1.56c-0.66,0.41-1.37,0.7-2.13,0.88c-0.76,0.18-1.47,0.28-2.11,0.28
				c-1.13,0-2.19-0.11-3.18-0.33c-0.99-0.22-1.85-0.58-2.58-1.09c-0.73-0.5-1.29-1.18-1.71-2.04c-0.42-0.85-0.61-1.91-0.59-3.18
				h-2.35c-0.07,1.52,0.13,2.82,0.61,3.9c0.47,1.08,1.15,1.97,2.02,2.66c0.88,0.69,1.93,1.21,3.18,1.54c1.24,0.33,2.59,0.5,4.05,0.5
				c1.45,0,2.7-0.13,3.73-0.4c1.04-0.26,1.9-0.61,2.61-1.04c0.7-0.43,1.26-0.9,1.66-1.43c0.4-0.53,0.71-1.06,0.93-1.57
				c0.22-0.52,0.36-1.01,0.42-1.47c0.06-0.46,0.09-0.83,0.09-1.11c0-1.01-0.17-1.88-0.5-2.59
				C328.88-368.37,328.42-368.97,327.83-369.46z"/>
			<polygon class="st0" points="298.35,-482.37 264.51,-460.44 264.51,-469.64 243.2,-469.64 243.2,-449.22 228.78,-437.21 
				244.69,-437.21 244.69,-440.21 237.06,-440.21 246.19,-447.82 246.19,-466.65 261.51,-466.65 261.51,-454.92 298.33,-478.78 
				356.81,-440.12 343.94,-440.12 343.94,-375.77 334.74,-375.77 334.74,-372.77 346.94,-372.77 346.94,-437.12 366.78,-437.12 			
				"/>
			<g>
				<path class="st0" d="M53.86-462.48L53.86-462.48c-0.02,1.14-0.45,3.14,0.33,6.8c0,0,2.38,17.64,20.34,17.98
					c5.17-0.35,7.35-1.34,10-2.64c9.98-4.88,11.64-15.82,11.64-15.82h-9.39c-5.43,12.25-15.98,8.14-15.98,8.14l5.93-27.88
					c11.4,0.31,11.83,11.05,11.83,11.05h9.54c0,0,0.67-11.28-10.33-17.98c-2.25-1.37-5.97-2.34-9.6-2.42
					C78.17-485.24,57.87-486.51,53.86-462.48L53.86-462.48z"/>
				<polygon class="st0" points="135.13,-482.21 133.27,-473.53 117.29,-473.53 115.43,-464.84 131.44,-464.84 129.62,-456.15 
					113.6,-456.15 111.78,-447.47 127.8,-447.47 125.94,-438.82 93.67,-438.82 102.86,-482.21 135.13,-482.21 				"/>
				<polygon class="st0" points="33.62,-438.74 28.43,-466.43 9.97,-438.74 33.62,-438.74 				"/>
				<polygon class="st0" points="56.23,-438.74 38.59,-438.74 32.38,-472.4 46.19,-493.11 56.23,-438.74 				"/>
			</g>
			<g>
				<path d="M44.21-389.45h-9.9v-17.25H19.64v17.25H9.68v-41.32h9.96v16.4h14.67v-16.4h9.9V-389.45z"/>
				<path d="M74.5-397.17H60.85l-2.38,7.72H47.82l15.15-41.32h9.37l15.27,41.32h-10.7L74.5-397.17z M63.23-404.86h8.88l-4.46-14.33
					L63.23-404.86z"/>
				<path d="M125.13-389.45h-9.9l-14.64-25.71v25.71h-9.96v-41.32h9.96l14.62,25.71v-25.71h9.93V-389.45z"/>
				<path d="M131.43-389.45v-41.32h13.31c3.65,0,6.93,0.83,9.85,2.48c2.91,1.66,5.19,3.99,6.82,7.01c1.64,3.02,2.46,6.4,2.48,10.15
					v1.9c0,3.78-0.8,7.18-2.4,10.18c-1.6,3-3.85,5.35-6.75,7.04c-2.91,1.69-6.14,2.55-9.72,2.57H131.43z M141.39-423.08v25.97h3.46
					c2.86,0,5.05-1.02,6.58-3.05c1.53-2.03,2.3-5.06,2.3-9.07v-1.79c0-3.99-0.77-7-2.3-9.02c-1.53-2.02-3.76-3.04-6.7-3.04H141.39z"
					/>
				<path d="M181.45-412.83l7.61-17.94h10.76l-13.31,26.48v14.84h-10.1v-14.84l-13.28-26.48h10.7L181.45-412.83z"/>
				<path d="M215.91-430.77l9.22,28.75l9.19-28.75h13.11v41.32h-9.99v-9.65l0.96-19.75l-9.99,29.4h-6.58l-10.02-29.43l0.97,19.78
					v9.65h-9.96v-41.32H215.91z"/>
				<path d="M277.75-397.17h-13.65l-2.38,7.72h-10.64l15.15-41.32h9.37l15.27,41.32h-10.7L277.75-397.17z M266.48-404.86h8.88
					l-4.46-14.33L266.48-404.86z"/>
				<path d="M328.37-389.45h-9.91l-14.64-25.71v25.71h-9.96v-41.32h9.96l14.61,25.71v-25.71h9.93V-389.45z"/>
			</g>
			<g>
				<path class="st0" d="M351.02-375.67c0-0.56,0.13-1.09,0.39-1.57s0.62-0.86,1.08-1.14c0.46-0.28,0.96-0.42,1.49-0.42
					s1.03,0.14,1.49,0.42c0.46,0.28,0.82,0.66,1.08,1.14s0.39,1,0.39,1.57s-0.13,1.08-0.39,1.57c-0.26,0.48-0.62,0.86-1.07,1.14
					c-0.46,0.28-0.95,0.42-1.49,0.42c-0.54,0-1.03-0.14-1.49-0.42c-0.46-0.28-0.82-0.66-1.08-1.14
					C351.15-374.59,351.02-375.11,351.02-375.67z M356.44-375.68c0-0.46-0.1-0.89-0.31-1.29c-0.21-0.4-0.5-0.71-0.89-0.95
					c-0.38-0.24-0.8-0.36-1.25-0.36c-0.44,0-0.85,0.11-1.23,0.34c-0.38,0.23-0.68,0.54-0.9,0.94c-0.22,0.4-0.32,0.84-0.32,1.31
					c0,0.47,0.11,0.91,0.32,1.31c0.22,0.4,0.51,0.72,0.89,0.95c0.38,0.23,0.79,0.35,1.24,0.35c0.44,0,0.86-0.12,1.24-0.35
					c0.38-0.24,0.68-0.55,0.89-0.95C356.33-374.78,356.44-375.21,356.44-375.68z M353.38-375.36v1.41h-0.63v-3.55h1.17
					c0.43,0,0.76,0.09,1,0.28s0.36,0.46,0.36,0.8c0,0.33-0.17,0.58-0.5,0.75c0.18,0.08,0.31,0.2,0.38,0.35
					c0.07,0.15,0.11,0.35,0.11,0.57c0,0.23,0.01,0.39,0.02,0.48c0.01,0.09,0.03,0.17,0.06,0.24v0.07h-0.65
					c-0.04-0.09-0.06-0.36-0.06-0.81c0-0.21-0.05-0.36-0.14-0.46c-0.09-0.09-0.24-0.14-0.46-0.14H353.38z M353.38-375.92h0.6
					c0.19,0,0.35-0.04,0.48-0.13s0.19-0.2,0.19-0.36c0-0.19-0.05-0.33-0.15-0.41c-0.1-0.08-0.28-0.12-0.54-0.13h-0.59V-375.92z"/>
			</g>
			<rect x="6.92" y="-372.7" class="st0" width="131.16" height="3.67"/>
		</g>
	</g>
	<rect x="6.78" y="-346.29" class="st0" width="340.81" height="48.73"/>
	<g>
		<path class="st1" d="M253.32-313.32c-0.11,1.17-0.54,2.09-1.3,2.75s-1.76,0.99-3.02,0.99c-0.88,0-1.65-0.21-2.32-0.62
			c-0.67-0.42-1.18-1.01-1.55-1.77c-0.36-0.77-0.55-1.65-0.57-2.67v-1.03c0-1.04,0.18-1.95,0.55-2.74c0.37-0.79,0.9-1.4,1.58-1.83
			c0.69-0.43,1.48-0.64,2.38-0.64c1.21,0,2.19,0.33,2.93,0.99s1.17,1.59,1.29,2.79h-1.9c-0.09-0.79-0.32-1.36-0.69-1.71
			c-0.37-0.35-0.91-0.53-1.63-0.53c-0.83,0-1.47,0.3-1.92,0.91c-0.45,0.61-0.67,1.5-0.68,2.67v0.98c0,1.19,0.21,2.1,0.64,2.72
			c0.43,0.62,1.05,0.94,1.87,0.94c0.75,0,1.31-0.17,1.69-0.51c0.38-0.34,0.62-0.9,0.72-1.68H253.32z"/>
		<path class="st1" d="M254.63-313.91c0-0.8,0.16-1.52,0.48-2.17c0.32-0.64,0.76-1.14,1.34-1.48c0.57-0.35,1.23-0.52,1.98-0.52
			c1.1,0,2,0.35,2.69,1.07c0.69,0.71,1.06,1.65,1.11,2.83l0.01,0.43c0,0.81-0.15,1.53-0.46,2.16s-0.75,1.13-1.33,1.47
			c-0.58,0.35-1.24,0.52-2,0.52c-1.15,0-2.08-0.38-2.77-1.15c-0.69-0.77-1.04-1.79-1.04-3.07V-313.91z M256.47-313.75
			c0,0.84,0.17,1.5,0.52,1.98s0.83,0.71,1.45,0.71s1.1-0.24,1.45-0.73c0.35-0.48,0.52-1.19,0.52-2.12c0-0.83-0.18-1.48-0.53-1.96
			c-0.36-0.48-0.84-0.73-1.45-0.73c-0.6,0-1.08,0.24-1.43,0.71C256.65-315.41,256.47-314.69,256.47-313.75z"/>
		<path class="st1" d="M265.64-317.92l0.05,0.85c0.57-0.67,1.36-1,2.36-1c1.09,0,1.84,0.42,2.24,1.25c0.59-0.84,1.43-1.25,2.51-1.25
			c0.9,0,1.57,0.25,2.01,0.75c0.44,0.5,0.67,1.23,0.68,2.21v5.37h-1.84v-5.32c0-0.52-0.11-0.9-0.34-1.14
			c-0.23-0.24-0.6-0.36-1.13-0.36c-0.42,0-0.76,0.11-1.02,0.34s-0.45,0.52-0.56,0.88l0.01,5.61h-1.84v-5.38
			c-0.03-0.96-0.52-1.44-1.47-1.44c-0.74,0-1.26,0.3-1.56,0.9v5.92h-1.84v-8.18H265.64z"/>
		<path class="st1" d="M284.67-313.75c0,1.26-0.29,2.27-0.86,3.03s-1.35,1.13-2.31,1.13c-0.9,0-1.61-0.29-2.15-0.88v3.88h-1.84
			v-11.32h1.69l0.08,0.83c0.54-0.66,1.27-0.98,2.2-0.98c1,0,1.78,0.37,2.35,1.11s0.85,1.78,0.85,3.09V-313.75z M282.84-313.91
			c0-0.82-0.16-1.46-0.49-1.94c-0.33-0.48-0.79-0.72-1.39-0.72c-0.75,0-1.29,0.31-1.62,0.93v3.63c0.33,0.63,0.88,0.95,1.63,0.95
			c0.58,0,1.04-0.24,1.37-0.71C282.67-312.23,282.84-312.95,282.84-313.91z"/>
		<path class="st1" d="M291.23-309.74c-0.08-0.16-0.15-0.41-0.21-0.76c-0.58,0.61-1.3,0.92-2.15,0.92c-0.82,0-1.49-0.23-2.01-0.7
			s-0.78-1.05-0.78-1.74c0-0.87,0.32-1.54,0.97-2.01c0.65-0.47,1.57-0.7,2.78-0.7h1.13v-0.54c0-0.42-0.12-0.76-0.35-1.02
			c-0.24-0.25-0.6-0.38-1.08-0.38c-0.42,0-0.76,0.1-1.03,0.31c-0.27,0.21-0.4,0.48-0.4,0.8h-1.84c0-0.45,0.15-0.87,0.45-1.26
			c0.3-0.39,0.7-0.7,1.21-0.92c0.51-0.22,1.08-0.33,1.71-0.33c0.96,0,1.72,0.24,2.29,0.72c0.57,0.48,0.86,1.16,0.88,2.03v3.69
			c0,0.74,0.1,1.32,0.31,1.76v0.13H291.23z M289.21-311.06c0.36,0,0.7-0.09,1.02-0.26c0.32-0.18,0.56-0.41,0.72-0.71v-1.54h-0.99
			c-0.68,0-1.19,0.12-1.53,0.35c-0.34,0.24-0.51,0.57-0.51,1.01c0,0.35,0.12,0.63,0.35,0.84
			C288.5-311.17,288.82-311.06,289.21-311.06z"/>
		<path class="st1" d="M296.54-317.92l0.05,0.95c0.6-0.73,1.4-1.1,2.38-1.1c1.7,0,2.57,0.97,2.6,2.92v5.4h-1.84v-5.3
			c0-0.52-0.11-0.9-0.34-1.15c-0.22-0.25-0.59-0.37-1.1-0.37c-0.74,0-1.29,0.33-1.66,1v5.82h-1.84v-8.18H296.54z"/>
		<path class="st1" d="M306.43-312.37l1.66-5.55h1.96l-3.25,9.42c-0.5,1.38-1.35,2.06-2.54,2.06c-0.27,0-0.56-0.05-0.88-0.14V-308
			l0.35,0.02c0.46,0,0.81-0.08,1.05-0.25s0.42-0.45,0.56-0.85l0.26-0.7l-2.87-8.13h1.98L306.43-312.37z"/>
	</g>
	<g>
		<path class="st1" d="M49.87-312.3h-4.26l-0.89,2.56h-1.99l4.16-11h1.72l4.16,11h-2L49.87-312.3z M46.14-313.85h3.19l-1.59-4.57
			L46.14-313.85z"/>
		<path class="st1" d="M55.3-317.92l0.05,0.95c0.6-0.73,1.4-1.1,2.38-1.1c1.7,0,2.57,0.97,2.6,2.92v5.4H58.5v-5.3
			c0-0.52-0.11-0.9-0.34-1.15c-0.22-0.25-0.59-0.37-1.1-0.37c-0.74,0-1.29,0.33-1.66,1v5.82h-1.84v-8.18H55.3z"/>
	</g>
	<g>
		<g>
			<g>
				<path class="st1" d="M136.61-309.73l3-14.29h4.69l-1.01,4.82h4.43l1.01-4.82h4.69l-3,14.29h-4.69l1.16-5.54h-4.43l-1.16,5.54
					H136.61z"/>
				<path class="st1" d="M160.2-309.71l-0.04-1.11c-1.33,1.09-2.56,1.41-4.11,1.41c-1.96,0-3.57-0.97-3.26-3.14
					c0.68-4.72,7.77-2.58,8.05-4.52c0.11-0.75-0.79-0.85-1.23-0.85c-0.57,0-1.37,0.12-1.59,1.01h-3.97c0.31-2.2,2.07-3.49,6.17-3.49
					c4.92,0,4.96,1.83,4.6,4.31l-0.7,4.86c-0.09,0.59-0.11,0.89,0.37,1.33l-0.03,0.2H160.2z M160.44-314.31
					c-1.44,0.65-3.18,0.34-3.38,1.69c-0.07,0.52,0.37,0.87,1.19,0.87C159.7-311.75,160.33-312.89,160.44-314.31z"/>
				<path class="st1" d="M166.78-320.11h3.75l-0.3,2.1h0.04c0.81-1.63,1.93-2.4,3.54-2.4c0.18,0,0.35,0.04,0.53,0.06l-0.59,4.13
					c-0.27-0.04-0.56-0.12-0.84-0.12c-1.69,0-2.65,0.79-2.97,3.04l-0.51,3.59h-4.13L166.78-320.11z"/>
				<path class="st1" d="M180.79-309.71l0.2-1.39c-1.15,1.27-2.11,1.69-3.44,1.69c-3.14,0-4.38-2.36-3.96-5.3
					c0.49-3.45,2.74-5.69,5.22-5.69c1.31,0,2.18,0.32,2.9,1.35l0.71-4.94h4.13l-2.04,14.29H180.79z M181.24-314.81
					c0.16-1.15-0.05-2.4-1.42-2.4c-1.37,0-1.93,1.31-2.1,2.46c-0.16,1.09-0.06,2.36,1.29,2.36
					C180.44-312.39,181.07-313.6,181.24-314.81z"/>
				<path class="st1" d="M197.92-313.68h0.04l2.53-6.43h3.91l-4.8,10.4h-4.03l-0.74-6.09h-0.04l-2.32,6.09h-4.03l-1.95-10.4h4.03
					l0.67,6.43h0.04l2.53-6.43h3.49L197.92-313.68z"/>
				<path class="st1" d="M210.78-309.71l-0.04-1.11c-1.33,1.09-2.56,1.41-4.11,1.41c-1.96,0-3.57-0.97-3.26-3.14
					c0.68-4.72,7.77-2.58,8.05-4.52c0.11-0.75-0.79-0.85-1.23-0.85c-0.58,0-1.37,0.12-1.59,1.01h-3.97c0.32-2.2,2.07-3.49,6.17-3.49
					c4.92,0,4.96,1.83,4.6,4.31l-0.7,4.86c-0.08,0.59-0.11,0.89,0.37,1.33l-0.03,0.2H210.78z M211.02-314.31
					c-1.44,0.65-3.18,0.34-3.38,1.69c-0.07,0.52,0.37,0.87,1.18,0.87C210.28-311.75,210.92-312.89,211.02-314.31z"/>
				<path class="st1" d="M217.37-320.11h3.75l-0.3,2.1h0.04c0.81-1.63,1.93-2.4,3.54-2.4c0.18,0,0.35,0.04,0.53,0.06l-0.59,4.13
					c-0.27-0.04-0.56-0.12-0.84-0.12c-1.69,0-2.65,0.79-2.97,3.04l-0.51,3.59h-4.13L217.37-320.11z"/>
				<path class="st1" d="M232.2-316.08c0.14-0.95-0.59-1.81-1.57-1.81c-1.23,0-2.02,0.69-2.18,1.81H232.2z M228.15-313.98
					c-0.18,1.23,0.66,2.04,1.75,2.04c0.66,0,1.29-0.3,1.68-0.91h3.95c-1.08,2.58-3.82,3.43-6.24,3.43c-3.33,0-5.64-1.9-5.14-5.4
					c0.49-3.41,3.36-5.6,6.69-5.6c3.85,0,5.79,2.66,5.19,6.43H228.15z"/>
			</g>
		</g>
	</g>
	<g>
		<path class="st1" d="M92.29-322.63L92.29-322.63c-0.01,0.62-0.25,1.72,0.18,3.72c0,0,1.3,9.65,11.13,9.84
			c2.83-0.19,4.02-0.73,5.47-1.44c5.46-2.67,6.37-8.66,6.37-8.66h-5.14c-2.97,6.71-8.74,4.46-8.74,4.46l3.25-15.26
			c6.24,0.17,6.47,6.05,6.47,6.05h5.22c0,0,0.37-6.17-5.65-9.84c-1.23-0.75-3.27-1.28-5.25-1.32
			C105.59-335.09,94.48-335.78,92.29-322.63z"/>
		<polygon class="st1" points="136.76,-333.43 135.74,-328.68 127,-328.68 125.98,-323.92 134.74,-323.92 133.75,-319.17 
			124.98,-319.17 123.98,-314.42 132.75,-314.42 131.73,-309.69 114.08,-309.69 119.1,-333.43 		"/>
		<polygon class="st1" points="81.22,-309.64 78.37,-324.8 68.27,-309.64 		"/>
		<polygon class="st1" points="93.59,-309.64 83.93,-309.64 80.54,-328.06 88.09,-339.39 		"/>
		<path class="st1" d="M132.64-310.88c0-0.7,0.57-1.22,1.24-1.22c0.67,0,1.24,0.52,1.24,1.22c0,0.71-0.57,1.23-1.24,1.23
			C133.21-309.65,132.64-310.17,132.64-310.88z M133.88-309.85c0.55,0,0.99-0.43,0.99-1.02c0-0.58-0.44-1.02-0.99-1.02
			c-0.56,0-1,0.44-1,1.02C132.89-310.29,133.32-309.85,133.88-309.85z M133.62-310.17h-0.21v-1.41h0.54c0.33,0,0.5,0.12,0.5,0.4
			c0,0.25-0.16,0.36-0.37,0.39l0.4,0.62h-0.24l-0.37-0.61h-0.25V-310.17z M133.88-310.96c0.18,0,0.34-0.01,0.34-0.23
			c0-0.17-0.16-0.21-0.31-0.21h-0.29v0.44H133.88z"/>
	</g>
</g>
<g>
	<rect x="660.33" y="-445.56" class="st0" width="503.58" height="72"/>
	<g>
		<path class="st1" d="M1024.62-396.85c-0.16,1.73-0.8,3.09-1.92,4.06c-1.12,0.97-2.6,1.46-4.46,1.46c-1.3,0-2.44-0.31-3.42-0.92
			c-0.99-0.61-1.75-1.49-2.28-2.62c-0.54-1.13-0.82-2.44-0.84-3.94v-1.52c0-1.53,0.27-2.88,0.82-4.05c0.54-1.17,1.32-2.07,2.34-2.7
			c1.02-0.63,2.19-0.95,3.52-0.95c1.79,0,3.24,0.49,4.33,1.46c1.09,0.97,1.73,2.35,1.91,4.13h-2.81c-0.13-1.17-0.47-2.01-1.02-2.53
			c-0.55-0.52-1.35-0.78-2.41-0.78c-1.23,0-2.17,0.45-2.83,1.35c-0.66,0.9-1,2.21-1.01,3.95v1.44c0,1.76,0.31,3.1,0.94,4.02
			c0.63,0.92,1.55,1.39,2.76,1.39c1.11,0,1.94-0.25,2.5-0.75c0.56-0.5,0.91-1.33,1.06-2.49H1024.62z"/>
		<path class="st1" d="M1026.55-397.71c0-1.18,0.23-2.25,0.7-3.2c0.47-0.95,1.13-1.68,1.98-2.19c0.85-0.51,1.82-0.76,2.93-0.76
			c1.63,0,2.95,0.52,3.97,1.57c1.02,1.05,1.57,2.44,1.65,4.18l0.01,0.64c0,1.19-0.23,2.26-0.69,3.19c-0.46,0.94-1.11,1.66-1.97,2.18
			c-0.85,0.51-1.84,0.77-2.95,0.77c-1.7,0-3.07-0.57-4.09-1.7c-1.02-1.14-1.54-2.65-1.54-4.54V-397.71z M1029.27-397.48
			c0,1.24,0.26,2.22,0.77,2.92c0.51,0.7,1.23,1.05,2.14,1.05s1.63-0.36,2.14-1.07c0.51-0.71,0.76-1.76,0.76-3.14
			c0-1.22-0.26-2.19-0.79-2.9c-0.53-0.72-1.24-1.07-2.14-1.07c-0.89,0-1.59,0.35-2.11,1.05
			C1029.53-399.93,1029.27-398.87,1029.27-397.48z"/>
		<path class="st1" d="M1042.82-403.64l0.08,1.26c0.85-0.99,2.01-1.48,3.48-1.48c1.62,0,2.72,0.62,3.32,1.85
			c0.88-1.24,2.11-1.85,3.71-1.85c1.33,0,2.32,0.37,2.98,1.11c0.65,0.74,0.98,1.82,1,3.26v7.94h-2.71v-7.86
			c0-0.77-0.17-1.33-0.5-1.69c-0.34-0.36-0.89-0.54-1.66-0.54c-0.62,0-1.12,0.16-1.51,0.5c-0.39,0.33-0.66,0.76-0.82,1.3l0.01,8.29
			h-2.71v-7.95c-0.04-1.42-0.76-2.13-2.18-2.13c-1.09,0-1.86,0.44-2.31,1.33v8.75h-2.71v-12.08H1042.82z"/>
		<path class="st1" d="M1070.93-397.48c0,1.87-0.42,3.36-1.27,4.47c-0.85,1.11-1.99,1.67-3.42,1.67c-1.33,0-2.39-0.44-3.18-1.31
			v5.73h-2.71v-16.73h2.5l0.11,1.23c0.8-0.97,1.88-1.45,3.25-1.45c1.47,0,2.63,0.55,3.47,1.65c0.84,1.1,1.26,2.62,1.26,4.57V-397.48
			z M1068.23-397.71c0-1.21-0.24-2.16-0.72-2.87c-0.48-0.71-1.17-1.06-2.06-1.06c-1.11,0-1.91,0.46-2.39,1.37v5.36
			c0.49,0.94,1.3,1.41,2.41,1.41c0.86,0,1.54-0.35,2.03-1.04C1067.98-395.24,1068.23-396.29,1068.23-397.71z"/>
		<path class="st1" d="M1080.63-391.56c-0.12-0.23-0.22-0.61-0.31-1.13c-0.86,0.9-1.92,1.35-3.17,1.35c-1.21,0-2.2-0.35-2.97-1.04
			s-1.15-1.55-1.15-2.57c0-1.29,0.48-2.28,1.44-2.97c0.96-0.69,2.32-1.03,4.1-1.03h1.66v-0.79c0-0.62-0.17-1.13-0.52-1.5
			c-0.35-0.38-0.88-0.56-1.6-0.56c-0.62,0-1.12,0.15-1.52,0.46c-0.39,0.31-0.59,0.7-0.59,1.18h-2.71c0-0.66,0.22-1.28,0.66-1.86
			c0.44-0.58,1.04-1.03,1.79-1.36c0.76-0.33,1.6-0.49,2.53-0.49c1.41,0,2.54,0.35,3.38,1.07c0.84,0.71,1.27,1.71,1.3,3v5.45
			c0,1.09,0.15,1.96,0.46,2.6v0.19H1080.63z M1077.64-393.51c0.54,0,1.04-0.13,1.51-0.39c0.47-0.26,0.83-0.61,1.07-1.05v-2.28h-1.46
			c-1.01,0-1.76,0.17-2.27,0.52c-0.51,0.35-0.76,0.85-0.76,1.49c0,0.52,0.17,0.94,0.52,1.24
			C1076.6-393.66,1077.06-393.51,1077.64-393.51z"/>
		<path class="st1" d="M1088.48-403.64l0.08,1.4c0.89-1.08,2.07-1.62,3.52-1.62c2.52,0,3.8,1.44,3.84,4.32v7.98h-2.71v-7.83
			c0-0.77-0.17-1.33-0.5-1.7c-0.33-0.37-0.87-0.55-1.62-0.55c-1.09,0-1.91,0.49-2.45,1.48v8.6h-2.71v-12.08H1088.48z"/>
		<path class="st1" d="M1103.09-395.44l2.46-8.2h2.89l-4.8,13.91c-0.74,2.03-1.99,3.05-3.75,3.05c-0.39,0-0.83-0.07-1.31-0.2v-2.11
			l0.51,0.03c0.69,0,1.2-0.12,1.55-0.37c0.35-0.25,0.62-0.67,0.82-1.26l0.39-1.04l-4.24-12.02h2.93L1103.09-395.44z"/>
	</g>
	<g>
		<path class="st1" d="M723.99-395.34h-6.3l-1.32,3.79h-2.94l6.14-16.26h2.53l6.15,16.26h-2.95L723.99-395.34z M718.49-397.62h4.71
			l-2.36-6.75L718.49-397.62z"/>
		<path class="st1" d="M732.02-403.64l0.08,1.4c0.89-1.08,2.07-1.62,3.52-1.62c2.52,0,3.8,1.44,3.84,4.32v7.98h-2.71v-7.83
			c0-0.77-0.17-1.33-0.5-1.7c-0.33-0.37-0.87-0.55-1.62-0.55c-1.09,0-1.91,0.49-2.45,1.48v8.6h-2.71v-12.08H732.02z"/>
	</g>
	<g>
		<g>
			<g>
				<path class="st1" d="M852.15-391.53l4.43-21.11h6.92l-1.49,7.12h6.54l1.49-7.12h6.92l-4.43,21.11h-6.92l1.71-8.18h-6.54
					l-1.72,8.18H852.15z"/>
				<path class="st1" d="M887.01-391.51l-0.06-1.64c-1.96,1.61-3.79,2.08-6.07,2.08c-2.9,0-5.28-1.44-4.82-4.63
					c1-6.98,11.48-3.81,11.89-6.68c0.16-1.11-1.17-1.26-1.81-1.26c-0.85,0-2.02,0.18-2.35,1.5h-5.86c0.47-3.25,3.05-5.16,9.12-5.16
					c7.27,0,7.32,2.7,6.8,6.36l-1.03,7.18c-0.13,0.88-0.16,1.32,0.54,1.96l-0.04,0.29H887.01z M887.37-398.31
					c-2.13,0.97-4.7,0.5-4.99,2.49c-0.11,0.76,0.55,1.29,1.75,1.29C886.27-394.53,887.22-396.2,887.37-398.31z"/>
				<path class="st1" d="M896.75-406.87h5.54l-0.44,3.11h0.06c1.19-2.4,2.85-3.55,5.23-3.55c0.26,0,0.52,0.06,0.78,0.09l-0.87,6.1
					c-0.4-0.06-0.82-0.18-1.24-0.18c-2.49,0-3.92,1.17-4.39,4.49l-0.76,5.31h-6.1L896.75-406.87z"/>
				<path class="st1" d="M917.44-391.51l0.29-2.05c-1.7,1.88-3.11,2.49-5.08,2.49c-4.63,0-6.48-3.49-5.86-7.83
					c0.73-5.1,4.05-8.41,7.71-8.41c1.94,0,3.22,0.47,4.29,1.99l1.04-7.3h6.1l-3.02,21.11H917.44z M918.11-399.04
					c0.24-1.7-0.08-3.55-2.1-3.55c-2.02,0-2.86,1.94-3.1,3.64c-0.23,1.61-0.09,3.49,1.91,3.49
					C916.92-395.47,917.85-397.26,918.11-399.04z"/>
				<path class="st1" d="M942.75-397.37h0.06l3.73-9.5h5.78l-7.09,15.36h-5.95l-1.09-9h-0.06l-3.43,9h-5.95l-2.87-15.36h5.95
					l0.99,9.5h0.06l3.73-9.5h5.16L942.75-397.37z"/>
				<path class="st1" d="M961.76-391.51l-0.06-1.64c-1.96,1.61-3.79,2.08-6.07,2.08c-2.9,0-5.28-1.44-4.82-4.63
					c1-6.98,11.48-3.81,11.89-6.68c0.16-1.11-1.17-1.26-1.81-1.26c-0.85,0-2.02,0.18-2.35,1.5h-5.86c0.47-3.25,3.05-5.16,9.12-5.16
					c7.27,0,7.32,2.7,6.8,6.36l-1.03,7.18c-0.13,0.88-0.16,1.32,0.54,1.96l-0.04,0.29H961.76z M962.12-398.31
					c-2.13,0.97-4.7,0.5-4.99,2.49c-0.11,0.76,0.55,1.29,1.75,1.29C961.02-394.53,961.96-396.2,962.12-398.31z"/>
				<path class="st1" d="M971.49-406.87h5.54l-0.44,3.11h0.06c1.19-2.4,2.85-3.55,5.23-3.55c0.26,0,0.52,0.06,0.78,0.09l-0.87,6.1
					c-0.4-0.06-0.83-0.18-1.24-0.18c-2.49,0-3.92,1.17-4.39,4.49l-0.76,5.31h-6.1L971.49-406.87z"/>
				<path class="st1" d="M993.41-400.92c0.2-1.41-0.88-2.67-2.32-2.67c-1.82,0-2.99,1.03-3.22,2.67H993.41z M987.43-397.81
					c-0.26,1.82,0.97,3.02,2.59,3.02c0.97,0,1.91-0.44,2.48-1.35h5.83c-1.6,3.81-5.65,5.07-9.23,5.07c-4.92,0-8.33-2.81-7.6-7.97
					c0.72-5.04,4.96-8.27,9.89-8.27c5.69,0,8.55,3.93,7.67,9.5H987.43z"/>
			</g>
		</g>
	</g>
	<g>
		<path class="st1" d="M786.67-410.6L786.67-410.6c-0.01,0.92-0.37,2.54,0.27,5.49c0,0,1.93,14.26,16.45,14.54
			c4.18-0.29,5.94-1.08,8.09-2.13c8.07-3.95,9.41-12.79,9.41-12.79h-7.59c-4.39,9.91-12.92,6.58-12.92,6.58l4.8-22.54
			c9.22,0.25,9.56,8.94,9.56,8.94h7.71c0,0,0.54-9.12-8.35-14.54c-1.82-1.11-4.82-1.89-7.76-1.96
			C806.33-429.01,789.91-430.04,786.67-410.6z"/>
		<polygon class="st1" points="852.38,-426.56 850.88,-419.54 837.96,-419.54 836.45,-412.51 849.4,-412.51 847.93,-405.49 
			834.98,-405.49 833.51,-398.47 846.46,-398.47 844.95,-391.47 818.86,-391.47 826.29,-426.56 		"/>
		<polygon class="st1" points="770.31,-391.41 766.11,-413.8 751.19,-391.41 		"/>
		<polygon class="st1" points="788.59,-391.41 774.33,-391.41 769.31,-418.63 780.47,-435.37 		"/>
		<path class="st1" d="M846.29-393.23c0-1.04,0.84-1.8,1.84-1.8c0.99,0,1.83,0.77,1.83,1.8c0,1.05-0.84,1.81-1.83,1.81
			C847.14-391.42,846.29-392.18,846.29-393.23z M848.13-391.72c0.82,0,1.46-0.64,1.46-1.51c0-0.86-0.65-1.5-1.46-1.5
			c-0.83,0-1.47,0.65-1.47,1.5C846.66-392.36,847.3-391.72,848.13-391.72z M847.75-392.18h-0.32v-2.09h0.79
			c0.49,0,0.74,0.18,0.74,0.59c0,0.37-0.23,0.54-0.54,0.57l0.59,0.92h-0.35l-0.55-0.9h-0.37V-392.18z M848.13-393.36
			c0.27,0,0.51-0.02,0.51-0.34c0-0.26-0.23-0.31-0.45-0.31h-0.43v0.65H848.13z"/>
	</g>
</g>
<g>
	<rect x="660.33" y="-355.56" width="503.58" height="72"/>
	<g>
		<path class="st1" d="M1024.62-306.85c-0.16,1.73-0.8,3.09-1.92,4.06c-1.12,0.97-2.6,1.46-4.46,1.46c-1.3,0-2.44-0.31-3.42-0.92
			c-0.99-0.61-1.75-1.49-2.28-2.62c-0.54-1.13-0.82-2.44-0.84-3.94v-1.52c0-1.53,0.27-2.88,0.82-4.05c0.54-1.17,1.32-2.07,2.34-2.7
			c1.02-0.63,2.19-0.95,3.52-0.95c1.79,0,3.24,0.49,4.33,1.46c1.09,0.97,1.73,2.35,1.91,4.13h-2.81c-0.13-1.17-0.47-2.01-1.02-2.53
			c-0.55-0.52-1.35-0.78-2.41-0.78c-1.23,0-2.17,0.45-2.83,1.35c-0.66,0.9-1,2.21-1.01,3.95v1.44c0,1.76,0.31,3.1,0.94,4.02
			c0.63,0.92,1.55,1.39,2.76,1.39c1.11,0,1.94-0.25,2.5-0.75c0.56-0.5,0.91-1.33,1.06-2.49H1024.62z"/>
		<path class="st1" d="M1026.55-307.71c0-1.18,0.23-2.25,0.7-3.2c0.47-0.95,1.13-1.68,1.98-2.19c0.85-0.51,1.82-0.76,2.93-0.76
			c1.63,0,2.95,0.52,3.97,1.57c1.02,1.05,1.57,2.44,1.65,4.18l0.01,0.64c0,1.19-0.23,2.26-0.69,3.19c-0.46,0.94-1.11,1.66-1.97,2.18
			c-0.85,0.51-1.84,0.77-2.95,0.77c-1.7,0-3.07-0.57-4.09-1.7c-1.02-1.14-1.54-2.65-1.54-4.54V-307.71z M1029.27-307.48
			c0,1.24,0.26,2.22,0.77,2.92c0.51,0.7,1.23,1.05,2.14,1.05s1.63-0.36,2.14-1.07c0.51-0.71,0.76-1.76,0.76-3.14
			c0-1.22-0.26-2.19-0.79-2.9c-0.53-0.72-1.24-1.07-2.14-1.07c-0.89,0-1.59,0.35-2.11,1.05
			C1029.53-309.93,1029.27-308.87,1029.27-307.48z"/>
		<path class="st1" d="M1042.82-313.64l0.08,1.26c0.85-0.99,2.01-1.48,3.48-1.48c1.62,0,2.72,0.62,3.32,1.85
			c0.88-1.24,2.11-1.85,3.71-1.85c1.33,0,2.32,0.37,2.98,1.11c0.65,0.74,0.98,1.82,1,3.26v7.94h-2.71v-7.86
			c0-0.77-0.17-1.33-0.5-1.69c-0.34-0.36-0.89-0.54-1.66-0.54c-0.62,0-1.12,0.16-1.51,0.5c-0.39,0.33-0.66,0.76-0.82,1.3l0.01,8.29
			h-2.71v-7.95c-0.04-1.42-0.76-2.13-2.18-2.13c-1.09,0-1.86,0.44-2.31,1.33v8.75h-2.71v-12.08H1042.82z"/>
		<path class="st1" d="M1070.93-307.48c0,1.87-0.42,3.36-1.27,4.47c-0.85,1.11-1.99,1.67-3.42,1.67c-1.33,0-2.39-0.44-3.18-1.31
			v5.73h-2.71v-16.73h2.5l0.11,1.23c0.8-0.97,1.88-1.45,3.25-1.45c1.47,0,2.63,0.55,3.47,1.65c0.84,1.1,1.26,2.62,1.26,4.57V-307.48
			z M1068.23-307.71c0-1.21-0.24-2.16-0.72-2.87c-0.48-0.71-1.17-1.06-2.06-1.06c-1.11,0-1.91,0.46-2.39,1.37v5.36
			c0.49,0.94,1.3,1.41,2.41,1.41c0.86,0,1.54-0.35,2.03-1.04C1067.98-305.24,1068.23-306.29,1068.23-307.71z"/>
		<path class="st1" d="M1080.63-301.56c-0.12-0.23-0.22-0.61-0.31-1.13c-0.86,0.9-1.92,1.35-3.17,1.35c-1.21,0-2.2-0.35-2.97-1.04
			s-1.15-1.55-1.15-2.57c0-1.29,0.48-2.28,1.44-2.97c0.96-0.69,2.32-1.03,4.1-1.03h1.66v-0.79c0-0.62-0.17-1.13-0.52-1.5
			c-0.35-0.38-0.88-0.56-1.6-0.56c-0.62,0-1.12,0.15-1.52,0.46c-0.39,0.31-0.59,0.7-0.59,1.18h-2.71c0-0.66,0.22-1.28,0.66-1.86
			c0.44-0.58,1.04-1.03,1.79-1.36c0.76-0.33,1.6-0.49,2.53-0.49c1.41,0,2.54,0.35,3.38,1.07c0.84,0.71,1.27,1.71,1.3,3v5.45
			c0,1.09,0.15,1.96,0.46,2.6v0.19H1080.63z M1077.64-303.51c0.54,0,1.04-0.13,1.51-0.39c0.47-0.26,0.83-0.61,1.07-1.05v-2.28h-1.46
			c-1.01,0-1.76,0.17-2.27,0.52c-0.51,0.35-0.76,0.85-0.76,1.49c0,0.52,0.17,0.94,0.52,1.24
			C1076.6-303.66,1077.06-303.51,1077.64-303.51z"/>
		<path class="st1" d="M1088.48-313.64l0.08,1.4c0.89-1.08,2.07-1.62,3.52-1.62c2.52,0,3.8,1.44,3.84,4.32v7.98h-2.71v-7.83
			c0-0.77-0.17-1.33-0.5-1.7c-0.33-0.37-0.87-0.55-1.62-0.55c-1.09,0-1.91,0.49-2.45,1.48v8.6h-2.71v-12.08H1088.48z"/>
		<path class="st1" d="M1103.09-305.44l2.46-8.2h2.89l-4.8,13.91c-0.74,2.03-1.99,3.05-3.75,3.05c-0.39,0-0.83-0.07-1.31-0.2v-2.11
			l0.51,0.03c0.69,0,1.2-0.12,1.55-0.37c0.35-0.25,0.62-0.67,0.82-1.26l0.39-1.04l-4.24-12.02h2.93L1103.09-305.44z"/>
	</g>
	<g>
		<path class="st1" d="M723.99-305.34h-6.3l-1.32,3.79h-2.94l6.14-16.26h2.53l6.15,16.26h-2.95L723.99-305.34z M718.49-307.62h4.71
			l-2.36-6.75L718.49-307.62z"/>
		<path class="st1" d="M732.02-313.64l0.08,1.4c0.89-1.08,2.07-1.62,3.52-1.62c2.52,0,3.8,1.44,3.84,4.32v7.98h-2.71v-7.83
			c0-0.77-0.17-1.33-0.5-1.7c-0.33-0.37-0.87-0.55-1.62-0.55c-1.09,0-1.91,0.49-2.45,1.48v8.6h-2.71v-12.08H732.02z"/>
	</g>
	<g>
		<g>
			<g>
				<path class="st1" d="M852.15-301.53l4.43-21.11h6.92l-1.49,7.12h6.54l1.49-7.12h6.92l-4.43,21.11h-6.92l1.71-8.18h-6.54
					l-1.72,8.18H852.15z"/>
				<path class="st1" d="M887.01-301.51l-0.06-1.64c-1.96,1.61-3.79,2.08-6.07,2.08c-2.9,0-5.28-1.44-4.82-4.63
					c1-6.98,11.48-3.81,11.89-6.68c0.16-1.11-1.17-1.26-1.81-1.26c-0.85,0-2.02,0.18-2.35,1.5h-5.86c0.47-3.25,3.05-5.16,9.12-5.16
					c7.27,0,7.32,2.7,6.8,6.36l-1.03,7.18c-0.13,0.88-0.16,1.32,0.54,1.96l-0.04,0.29H887.01z M887.37-308.31
					c-2.13,0.97-4.7,0.5-4.99,2.49c-0.11,0.76,0.55,1.29,1.75,1.29C886.27-304.53,887.22-306.2,887.37-308.31z"/>
				<path class="st1" d="M896.75-316.87h5.54l-0.44,3.11h0.06c1.19-2.4,2.85-3.55,5.23-3.55c0.26,0,0.52,0.06,0.78,0.09l-0.87,6.1
					c-0.4-0.06-0.82-0.18-1.24-0.18c-2.49,0-3.92,1.17-4.39,4.49l-0.76,5.31h-6.1L896.75-316.87z"/>
				<path class="st1" d="M917.44-301.51l0.29-2.05c-1.7,1.88-3.11,2.49-5.08,2.49c-4.63,0-6.48-3.49-5.86-7.83
					c0.73-5.1,4.05-8.41,7.71-8.41c1.94,0,3.22,0.47,4.29,1.99l1.04-7.3h6.1l-3.02,21.11H917.44z M918.11-309.04
					c0.24-1.7-0.08-3.55-2.1-3.55c-2.02,0-2.86,1.94-3.1,3.64c-0.23,1.61-0.09,3.49,1.91,3.49
					C916.92-305.47,917.85-307.26,918.11-309.04z"/>
				<path class="st1" d="M942.75-307.37h0.06l3.73-9.5h5.78l-7.09,15.36h-5.95l-1.09-9h-0.06l-3.43,9h-5.95l-2.87-15.36h5.95
					l0.99,9.5h0.06l3.73-9.5h5.16L942.75-307.37z"/>
				<path class="st1" d="M961.76-301.51l-0.06-1.64c-1.96,1.61-3.79,2.08-6.07,2.08c-2.9,0-5.28-1.44-4.82-4.63
					c1-6.98,11.48-3.81,11.89-6.68c0.16-1.11-1.17-1.26-1.81-1.26c-0.85,0-2.02,0.18-2.35,1.5h-5.86c0.47-3.25,3.05-5.16,9.12-5.16
					c7.27,0,7.32,2.7,6.8,6.36l-1.03,7.18c-0.13,0.88-0.16,1.32,0.54,1.96l-0.04,0.29H961.76z M962.12-308.31
					c-2.13,0.97-4.7,0.5-4.99,2.49c-0.11,0.76,0.55,1.29,1.75,1.29C961.02-304.53,961.96-306.2,962.12-308.31z"/>
				<path class="st1" d="M971.49-316.87h5.54l-0.44,3.11h0.06c1.19-2.4,2.85-3.55,5.23-3.55c0.26,0,0.52,0.06,0.78,0.09l-0.87,6.1
					c-0.4-0.06-0.83-0.18-1.24-0.18c-2.49,0-3.92,1.17-4.39,4.49l-0.76,5.31h-6.1L971.49-316.87z"/>
				<path class="st1" d="M993.41-310.92c0.2-1.41-0.88-2.67-2.32-2.67c-1.82,0-2.99,1.03-3.22,2.67H993.41z M987.43-307.81
					c-0.26,1.82,0.97,3.02,2.59,3.02c0.97,0,1.91-0.44,2.48-1.35h5.83c-1.6,3.81-5.65,5.07-9.23,5.07c-4.92,0-8.33-2.81-7.6-7.97
					c0.72-5.04,4.96-8.27,9.89-8.27c5.69,0,8.55,3.93,7.67,9.5H987.43z"/>
			</g>
		</g>
	</g>
	<g>
		<path class="st1" d="M786.67-320.6L786.67-320.6c-0.01,0.92-0.37,2.54,0.27,5.49c0,0,1.93,14.26,16.45,14.54
			c4.18-0.29,5.94-1.08,8.09-2.13c8.07-3.95,9.41-12.79,9.41-12.79h-7.59c-4.39,9.91-12.92,6.58-12.92,6.58l4.8-22.54
			c9.22,0.25,9.56,8.94,9.56,8.94h7.71c0,0,0.54-9.12-8.35-14.54c-1.82-1.11-4.82-1.89-7.76-1.96
			C806.33-339.01,789.91-340.04,786.67-320.6z"/>
		<polygon class="st1" points="852.38,-336.56 850.88,-329.54 837.96,-329.54 836.45,-322.51 849.4,-322.51 847.93,-315.49 
			834.98,-315.49 833.51,-308.47 846.46,-308.47 844.95,-301.47 818.86,-301.47 826.29,-336.56 		"/>
		<polygon class="st1" points="770.31,-301.41 766.11,-323.8 751.19,-301.41 		"/>
		<polygon class="st1" points="788.59,-301.41 774.33,-301.41 769.31,-328.63 780.47,-345.37 		"/>
		<path class="st1" d="M846.29-303.23c0-1.04,0.84-1.8,1.84-1.8c0.99,0,1.83,0.77,1.83,1.8c0,1.05-0.84,1.81-1.83,1.81
			C847.14-301.42,846.29-302.18,846.29-303.23z M848.13-301.72c0.82,0,1.46-0.64,1.46-1.51c0-0.86-0.65-1.5-1.46-1.5
			c-0.83,0-1.47,0.65-1.47,1.5C846.66-302.36,847.3-301.72,848.13-301.72z M847.75-302.18h-0.32v-2.09h0.79
			c0.49,0,0.74,0.18,0.74,0.59c0,0.37-0.23,0.54-0.54,0.57l0.59,0.92h-0.35l-0.55-0.9h-0.37V-302.18z M848.13-303.36
			c0.27,0,0.51-0.02,0.51-0.34c0-0.26-0.23-0.31-0.45-0.31h-0.43v0.65H848.13z"/>
	</g>
</g>
<g>
	<path class="st1" d="M848.13-214.73c-0.83,0-1.47,0.65-1.47,1.5c0,0.87,0.65,1.51,1.47,1.51c0.82,0,1.46-0.64,1.46-1.51
		C849.6-214.09,848.95-214.73,848.13-214.73z M848.66-212.18l-0.55-0.9h-0.37v0.9h-0.32v-2.09h0.79c0.49,0,0.74,0.18,0.74,0.59
		c0,0.37-0.23,0.54-0.54,0.57l0.59,0.92H848.66z"/>
	<path class="st1" d="M1065.45-221.64c-1.11,0-1.91,0.46-2.39,1.37v5.36c0.49,0.94,1.3,1.41,2.41,1.41c0.86,0,1.54-0.35,2.03-1.04
		c0.49-0.7,0.73-1.75,0.73-3.17c0-1.21-0.24-2.16-0.72-2.87C1067.03-221.29,1066.34-221.64,1065.45-221.64z"/>
	<path class="st1" d="M882.38-215.82c-0.11,0.76,0.55,1.29,1.75,1.29c2.14,0,3.08-1.67,3.24-3.78
		C885.24-217.34,882.67-217.81,882.38-215.82z"/>
	<path class="st1" d="M1032.16-221.68c-0.89,0-1.59,0.35-2.11,1.05c-0.52,0.7-0.78,1.75-0.78,3.15c0,1.24,0.26,2.22,0.77,2.92
		s1.23,1.05,2.14,1.05s1.63-0.36,2.14-1.07c0.51-0.71,0.76-1.76,0.76-3.14c0-1.22-0.26-2.19-0.79-2.9
		C1033.77-221.33,1033.06-221.68,1032.16-221.68z"/>
	<path class="st1" d="M957.13-215.82c-0.11,0.76,0.55,1.29,1.75,1.29c2.14,0,3.08-1.67,3.24-3.78
		C959.98-217.34,957.41-217.81,957.13-215.82z"/>
	<path class="st1" d="M991.1-223.59c-1.82,0-2.99,1.03-3.22,2.67h5.54C993.61-222.33,992.53-223.59,991.1-223.59z"/>
	<path class="st1" d="M848.63-213.7c0-0.26-0.23-0.31-0.45-0.31h-0.43v0.65h0.38C848.4-213.36,848.63-213.38,848.63-213.7z"/>
	<polygon class="st1" points="718.49,-217.62 723.2,-217.62 720.85,-224.37 	"/>
	<path class="st1" d="M916-222.59c-2.02,0-2.86,1.94-3.1,3.64c-0.23,1.61-0.09,3.49,1.91,3.49c2.11,0,3.04-1.79,3.3-3.58
		C918.35-220.75,918.03-222.59,916-222.59z"/>
	<path class="st1" d="M660.33-265.56v72h503.58v-72H660.33z M725.32-211.56l-1.33-3.79h-6.3l-1.32,3.79h-2.94l6.14-16.26h2.53
		l6.15,16.26H725.32z M739.45-211.56h-2.71v-7.83c0-0.77-0.17-1.33-0.5-1.7c-0.33-0.37-0.87-0.55-1.62-0.55
		c-1.09,0-1.91,0.49-2.45,1.48v8.6h-2.71v-12.08h2.56l0.08,1.4c0.89-1.08,2.07-1.62,3.52-1.62c2.52,0,3.8,1.44,3.84,4.32V-211.56z
		 M751.19-211.41l14.92-22.39l4.2,22.39H751.19z M774.33-211.41l-5.02-27.22l11.16-16.74l8.12,43.96H774.33z M811.47-212.7
		c-2.15,1.05-3.91,1.85-8.09,2.13c-14.52-0.28-16.45-14.54-16.45-14.54c-0.63-2.96-0.28-4.57-0.27-5.49
		c3.24-19.44,19.66-18.41,19.66-18.41c2.94,0.07,5.94,0.85,7.76,1.96c8.89,5.41,8.35,14.54,8.35,14.54h-7.71
		c0,0-0.34-8.69-9.56-8.94l-4.8,22.54c0,0,8.53,3.32,12.92-6.58h7.59C820.88-225.49,819.54-216.64,811.47-212.7z M848.13-211.42
		c-1,0-1.84-0.77-1.84-1.81c0-1.04,0.84-1.8,1.84-1.8c0.99,0,1.83,0.77,1.83,1.8C849.96-212.18,849.12-211.42,848.13-211.42z
		 M837.96-239.54l-1.5,7.02h12.95l-1.47,7.02h-12.95l-1.47,7.02h12.95l-1.51,6.99h-26.09l7.43-35.09h26.09l-1.51,7.02H837.96z
		 M865.62-211.53l1.71-8.18h-6.54l-1.72,8.18h-6.92l4.43-21.11h6.92l-1.49,7.12h6.54l1.49-7.12h6.92l-4.43,21.11H865.62z
		 M893.85-220.95l-1.03,7.18c-0.13,0.88-0.16,1.32,0.54,1.96l-0.04,0.29h-6.3l-0.06-1.64c-1.96,1.61-3.79,2.08-6.07,2.08
		c-2.9,0-5.28-1.44-4.82-4.63c1-6.98,11.48-3.81,11.89-6.68c0.16-1.11-1.17-1.26-1.81-1.26c-0.85,0-2.02,0.18-2.35,1.5h-5.86
		c0.47-3.25,3.05-5.16,9.12-5.16C894.32-227.31,894.37-224.62,893.85-220.95z M901.4-216.82l-0.76,5.31h-6.1l2.2-15.36h5.54
		l-0.44,3.11h0.06c1.19-2.4,2.85-3.55,5.23-3.55c0.26,0,0.52,0.06,0.78,0.09l-0.87,6.1c-0.4-0.06-0.82-0.18-1.24-0.18
		C903.31-221.3,901.88-220.13,901.4-216.82z M917.44-211.51l0.29-2.05c-1.7,1.88-3.11,2.49-5.08,2.49c-4.63,0-6.48-3.49-5.86-7.83
		c0.73-5.1,4.05-8.41,7.71-8.41c1.94,0,3.22,0.47,4.29,1.99l1.04-7.3h6.1l-3.02,21.11H917.44z M939.28-211.51l-1.09-9h-0.06l-3.43,9
		h-5.95l-2.87-15.36h5.95l0.99,9.5h0.06l3.73-9.5h5.16l0.99,9.5h0.06l3.73-9.5h5.78l-7.09,15.36H939.28z M968.59-220.95l-1.03,7.18
		c-0.12,0.88-0.16,1.32,0.54,1.96l-0.04,0.29h-6.3l-0.06-1.64c-1.96,1.61-3.79,2.08-6.07,2.08c-2.9,0-5.28-1.44-4.82-4.63
		c1-6.98,11.48-3.81,11.89-6.68c0.16-1.11-1.17-1.26-1.81-1.26c-0.85,0-2.02,0.18-2.35,1.5h-5.86c0.47-3.25,3.05-5.16,9.12-5.16
		C969.06-227.31,969.11-224.62,968.59-220.95z M976.15-216.82l-0.76,5.31h-6.1l2.2-15.36h5.54l-0.44,3.11h0.06
		c1.19-2.4,2.85-3.55,5.23-3.55c0.26,0,0.52,0.06,0.78,0.09l-0.87,6.1c-0.4-0.06-0.83-0.18-1.24-0.18
		C978.05-221.3,976.62-220.13,976.15-216.82z M999.07-217.81h-11.64c-0.26,1.82,0.97,3.02,2.59,3.02c0.97,0,1.91-0.44,2.48-1.35
		h5.83c-1.6,3.81-5.65,5.07-9.23,5.07c-4.92,0-8.33-2.81-7.6-7.97c0.72-5.04,4.96-8.27,9.89-8.27
		C997.08-227.31,999.95-223.38,999.07-217.81z M1015.48-215c0.63,0.92,1.55,1.39,2.76,1.39c1.11,0,1.94-0.25,2.5-0.75
		c0.56-0.5,0.91-1.33,1.06-2.49h2.81c-0.16,1.73-0.8,3.09-1.92,4.06c-1.12,0.97-2.6,1.46-4.46,1.46c-1.29,0-2.44-0.31-3.42-0.92
		c-0.99-0.61-1.75-1.49-2.28-2.62c-0.54-1.13-0.82-2.44-0.84-3.94v-1.52c0-1.53,0.27-2.88,0.82-4.05c0.54-1.17,1.32-2.07,2.34-2.7
		c1.02-0.63,2.19-0.95,3.52-0.95c1.79,0,3.24,0.49,4.33,1.46c1.09,0.97,1.73,2.35,1.91,4.13h-2.81c-0.13-1.17-0.47-2.01-1.02-2.53
		c-0.55-0.52-1.35-0.78-2.41-0.78c-1.23,0-2.17,0.45-2.83,1.35c-0.66,0.9-1,2.21-1.01,3.95v1.44
		C1014.53-217.26,1014.85-215.92,1015.48-215z M1037.1-214.28c-0.46,0.94-1.11,1.66-1.97,2.18c-0.85,0.51-1.84,0.77-2.95,0.77
		c-1.7,0-3.07-0.57-4.09-1.7c-1.02-1.14-1.54-2.65-1.54-4.54v-0.13c0-1.18,0.23-2.25,0.7-3.2c0.47-0.95,1.13-1.68,1.98-2.19
		c0.85-0.51,1.82-0.76,2.93-0.76c1.63,0,2.95,0.52,3.97,1.57c1.02,1.05,1.57,2.44,1.65,4.18l0.01,0.64
		C1037.79-216.28,1037.56-215.22,1037.1-214.28z M1057.38-211.56h-2.71v-7.86c0-0.77-0.17-1.33-0.5-1.69
		c-0.34-0.36-0.89-0.54-1.66-0.54c-0.62,0-1.12,0.16-1.51,0.5c-0.39,0.33-0.66,0.76-0.82,1.3l0.01,8.29h-2.71v-7.95
		c-0.04-1.42-0.76-2.13-2.18-2.13c-1.09,0-1.86,0.44-2.31,1.33v8.75h-2.71v-12.08h2.56l0.08,1.26c0.85-0.99,2.01-1.48,3.48-1.48
		c1.62,0,2.72,0.62,3.32,1.85c0.88-1.24,2.11-1.85,3.71-1.85c1.33,0,2.32,0.37,2.98,1.11c0.65,0.74,0.98,1.82,1,3.26V-211.56z
		 M1070.93-217.48c0,1.87-0.43,3.36-1.27,4.47c-0.85,1.11-1.99,1.67-3.42,1.67c-1.33,0-2.39-0.44-3.18-1.31v5.73h-2.71v-16.73h2.5
		l0.11,1.23c0.8-0.97,1.88-1.45,3.25-1.45c1.47,0,2.63,0.55,3.47,1.65s1.26,2.62,1.26,4.57V-217.48z M1083.4-211.56h-2.77
		c-0.12-0.23-0.22-0.61-0.31-1.13c-0.86,0.9-1.92,1.35-3.17,1.35c-1.21,0-2.2-0.35-2.97-1.04c-0.77-0.69-1.15-1.55-1.15-2.57
		c0-1.29,0.48-2.28,1.44-2.97c0.96-0.69,2.32-1.03,4.1-1.03h1.66v-0.79c0-0.62-0.17-1.13-0.52-1.5c-0.35-0.38-0.88-0.56-1.6-0.56
		c-0.62,0-1.12,0.15-1.52,0.46c-0.39,0.31-0.59,0.7-0.59,1.18h-2.71c0-0.66,0.22-1.28,0.66-1.86c0.44-0.58,1.04-1.03,1.79-1.36
		c0.76-0.33,1.6-0.49,2.53-0.49c1.41,0,2.54,0.35,3.38,1.07c0.84,0.71,1.27,1.71,1.3,3v5.45c0,1.09,0.15,1.96,0.46,2.6V-211.56z
		 M1095.92-211.56h-2.71v-7.83c0-0.77-0.17-1.33-0.5-1.7c-0.33-0.37-0.87-0.55-1.62-0.55c-1.09,0-1.91,0.49-2.45,1.48v8.6h-2.71
		v-12.08h2.56l0.08,1.4c0.89-1.08,2.07-1.62,3.52-1.62c2.52,0,3.8,1.44,3.84,4.32V-211.56z M1103.64-209.72
		c-0.74,2.03-1.99,3.05-3.75,3.05c-0.39,0-0.83-0.07-1.31-0.2v-2.11l0.51,0.03c0.69,0,1.2-0.12,1.55-0.37
		c0.35-0.25,0.62-0.67,0.82-1.26l0.39-1.04l-4.24-12.02h2.93l2.56,8.2l2.46-8.2h2.89L1103.64-209.72z"/>
	<path class="st1" d="M1076.49-216.7c-0.51,0.35-0.76,0.85-0.76,1.49c0,0.52,0.17,0.94,0.52,1.24c0.35,0.31,0.81,0.46,1.39,0.46
		c0.54,0,1.04-0.13,1.51-0.39c0.47-0.26,0.83-0.61,1.07-1.05v-2.28h-1.46C1077.76-217.23,1077-217.05,1076.49-216.7z"/>
</g>
</svg>
